<svg width="65" height="81" viewBox="0 0 65 81" xmlns="http://www.w3.org/2000/svg" fill="#302683"><path d="M 32.37 1.15 L 1 4.439 L 1 61.937 L 32.37 80.603 L 63.74 61.937 L 63.74 4.439 L 32.699 1.183 L 32.37 1.149 L 32.37 1.15 Z M 59.637 59.604 L 32.37 75.828 L 5.103 59.604 L 5.103 36.037 L 32.254 52.196 L 32.299 55.123 L 13.673 44.039 L 13.646 46.882 L 32.345 58.12 L 32.393 61.127 L 13.699 50.005 L 13.672 52.848 L 32.371 64.086 L 51.249 52.791 L 51.249 49.935 L 51.225 49.949 L 51.225 40.663 L 59.636 35.64 L 59.636 59.604 L 59.637 59.604 Z M 59.614 32.582 L 52.154 36.979 L 48.711 39.009 L 32.289 29.238 L 32.261 32.081 L 46.298 40.428 L 46.174 40.5 L 45.872 40.681 L 43.876 41.855 L 32.289 34.959 L 32.262 37.802 L 41.41 43.242 L 39.251 44.685 L 39.199 44.718 L 32.289 40.646 L 32.262 43.488 L 36.795 46.158 L 32.176 48.93 L 5.165 32.874 L 32.216 16.613 L 32.216 16.617 L 59.616 32.583 L 59.614 32.582 Z M 59.636 29.722 L 32.225 13.561 L 32.225 13.557 L 32.221 13.56 L 32.217 13.558 L 32.217 13.561 L 5.105 29.706 L 5.105 8.134 L 32.372 5.276 L 59.637 8.134 L 59.637 29.722 L 59.636 29.722 Z"></path></svg>